<svg xmlns="http://www.w3.org/2000/svg" version="1.1" xmlns:xlink="http://www.w3.org/1999/xlink" xmlns:svgjs="http://svgjs.dev/svgjs" viewBox="0 0 6.632767224688866 6.148665098537022"><g transform="matrix(0.8523494337332694,0,0,0.8523494337332694,3.3163642089628222,4.92791482748133)"><g transform="matrix(1,0,0,1,0,0)"><path d=" M -2.7672389487337012 -2.15826498445385 L -2.7256410636252513 -2.474387498442687 L -2.626883034752782 -2.4613921407671526 L -2.6519819118319994 -2.270653594807579 L -2.4046027316661562 -2.23810149788504 L -2.3849185869517444 -2.3876908651477518 L -2.2861605580792745 -2.3746955074722176 L -2.3058447027936864 -2.225106140209506 L -1.9238835028898698 -2.1748446833173674 L -1.9403825109191017 -2.049460715288104 L -2.7672389487337012 -2.15826498445385 M -2.659553417726422 -2.7248520296296546 L -2.5566995950040003 -3.0163186541220837 L -2.462767223129663 -2.983171450590687 L -2.523537096270557 -2.8109621021544022 L -2.288245713781408 -2.72793160703409 L -2.241287175445263 -2.8610024671894014 L -2.1473548035709253 -2.8278552636580048 L -2.194313341907071 -2.6947844035026938 L -1.9249484519733093 -2.599729922787659 L -1.8625537159142098 -2.776543799257 L -1.7686213440398726 -2.7433965957256032 L -1.8731000296805 -2.4473254432001186 L -2.659553417726422 -2.7248520296296546 M -2.4274511359367277 -3.280720231026309 L -2.3527658029226353 -3.395819624843186 Q -2.3400081659664913 -3.415480731260304 -2.3230871544946843 -3.4379699619094644 Q -2.306166143022877 -3.4604591925586248 -2.2845346581386354 -3.4798919060203755 Q -2.2629031732543936 -3.4993246194821266 -2.2359859258359696 -3.512999253808696 Q -2.2090686784175455 -3.5266738881352655 -2.1759198934132886 -3.529320211482737 Q -2.1427711084090317 -3.5319665348302083 -2.1027435855569756 -3.5205452900073375 Q -2.0627160627049195 -3.509124045184467 -2.0152017221968843 -3.4782930892071193 L -1.9975886476982165 -3.4668643727672404 Q -1.9177154028786754 -3.415036472632906 -1.8824225306588238 -3.359539962497776 Q -1.8471296584389725 -3.304043452362646 -1.8539813809742918 -3.2450440149647792 L -1.5013953766227313 -3.175745621574029 L -1.5742202209140528 -3.0635134724429816 L -1.8962916915303643 -3.1403688653240276 L -1.9220727495459051 -3.1006370461061024 L -1.6603342703680242 -2.9308010041274364 L -1.7278434325942857 -2.826760982670188 L -2.4274511359367277 -3.280720231026309 M -1.9883035632690595 -3.166313322378321 Q -1.9702302442478556 -3.194166556469238 -1.9638824871503142 -3.217404818051461 Q -1.9575347300527726 -3.2406430796336836 -1.964368017679429 -3.2619570004261735 Q -1.9712013053060855 -3.283270921218664 -1.9917080854096587 -3.3041441742469337 Q -2.012214865513232 -3.3250174272752036 -2.0474410145105684 -3.3478748601549615 L -2.102737876308712 -3.383755714094116 Q -2.129771897632249 -3.401297464908814 -2.1526224132884026 -3.409139825260678 Q -2.1754729289445565 -3.416982185612543 -2.1957455737816556 -3.4135477108782224 Q -2.2160182186187547 -3.4101132361439013 -2.234654167226995 -3.3948484976592685 Q -2.253290115835235 -3.3795837591746354 -2.272160787166198 -3.3505017059326487 L -2.282526367193065 -3.3345270569687404 L -1.9986691432959265 -3.1503386734144128 L -1.9883035632690595 -3.166313322378321 M -1.9852592455853597 -3.8737110743559686 L -1.9082706375674945 -3.941438569318136 L -1.387862016323906 -3.6559204928891718 L -1.3856623418091099 -3.657855564173805 Q -1.399662654297397 -3.671552525296796 -1.4172987985508994 -3.6879039744304367 Q -1.434934942804402 -3.7042554235640774 -1.4565583850291968 -3.7258786522367817 Q -1.4781818272539917 -3.747501880909486 -1.5047601030923956 -3.775496726378652 Q -1.5313383789307995 -3.8034915718478177 -1.56326705512725 -3.8397862013419544 L -1.7641919568483468 -4.0681857384616205 L -1.6791378756095625 -4.143008494800777 L -1.1282875832506005 -3.5168344829221407 L -1.206009416106731 -3.4484619641984287 L -1.7160094560888872 -3.7236266918149568 L -1.7189423554419487 -3.721046596768779 Q -1.7033294835498005 -3.705516573550125 -1.6845645477135953 -3.68788198094952 Q -1.66579961187739 -3.6702473883489146 -1.641434818666031 -3.645507954113582 Q -1.6170700254546722 -3.62076851987825 -1.5854928154642989 -3.5870911819125273 Q -1.5539156054739254 -3.553413843946805 -1.511989060973536 -3.505754229459555 L -1.3500880968258786 -3.321714795054944 L -1.4344089532263975 -3.247537062477332 L -1.9852592455853597 -3.8737110743559686 M -1.1131199878268991 -4.469774399217366 L -0.8153297092030398 -4.583725168645406 L -0.779731000223989 -4.490694208707785 L -0.9594084424564554 -4.421939839405108 L -0.8702371665334407 -4.188906405443711 L -0.7293226242749835 -4.24282797933845 L -0.6937239152959327 -4.149797019400828 L -0.8346384575543898 -4.095875445506088 L -0.6969552154736489 -3.7360645269238146 L -0.8150680518650418 -3.6908681267984513 L -1.1131199878268991 -4.469774399217366 M -0.24981086976294287 -3.8420420732402505 Q -0.26966114303819755 -3.83944432760847 -0.29331232508255856 -3.839550058973438 Q -0.31696350712691956 -3.8396557903384063 -0.3410492510831235 -3.846845099950276 Q -0.36513499503932745 -3.854034409562146 -0.38863499733925744 -3.8699181555649473 Q -0.4121349996391874 -3.8858019015677487 -0.43234578328609485 -3.914180992730588 Q -0.45255656693300234 -3.9425600838934267 -0.468100394651168 -3.986077044023316 Q -0.4836442223693336 -4.029594004153205 -0.4917542575124532 -4.091565589012537 L -0.5300868454936045 -4.384478158074223 Q -0.5382602402862798 -4.446933895940267 -0.5341325115829919 -4.492532768870446 Q -0.530004782879704 -4.538131641800624 -0.5175035587486703 -4.570545432805111 Q -0.5050023346176367 -4.602959223809598 -0.48628598585915617 -4.623629029813667 Q -0.4675696371006756 -4.644298835817738 -0.4458078824481176 -4.656749402802544 Q -0.42404612779555956 -4.66919996978735 -0.4016710943773574 -4.675082791356745 Q -0.3792960609591552 -4.6809656129261406 -0.35992994069061396 -4.683499998908365 Q -0.34153212643549985 -4.685907665591479 -0.3186705335507648 -4.686191047758891 Q -0.29580894066602975 -4.686474429926303 -0.2721236723370716 -4.6804638230064395 Q -0.24843840400811346 -4.674453216086575 -0.22482304450393792 -4.659569455921979 Q -0.20120768499976238 -4.644685695757382 -0.18078650467427604 -4.616580360922678 Q -0.16036532434878964 -4.588475026087973 -0.14457942012726727 -4.544989745782862 Q -0.12879351590574484 -4.501504465477751 -0.12049340181395835 -4.438080421598278 L -0.08216081383280699 -4.145167852536593 Q -0.07411413833924296 -4.083680420683975 -0.07848394354588767 -4.038049867929018 Q -0.08285374875253237 -3.992419315174063 -0.09529161323401042 -3.9595213711628623 Q -0.10772947771548846 -3.9266234271516622 -0.1268349400063491 -3.905164031987966 Q -0.14594040229720967 -3.88370463682427 -0.16709128464394296 -3.8703491234755925 Q -0.18824216699067625 -3.8569936101269153 -0.2100696877526092 -3.850689995200362 Q -0.23189720851454226 -3.8443863802738085 -0.24981086976294287 -3.8420420732402505 M -0.26216600142628915 -3.936451909549389 Q -0.24376818717117504 -3.9388595762325025 -0.2307935019240625 -3.946959315332114 Q -0.21781881667694997 -3.955059054431725 -0.21088949483852965 -3.9717241041633367 Q -0.2039601730001092 -3.988389153894949 -0.20268710103800086 -4.0144091034181875 Q -0.20141402907589245 -4.040429052941426 -0.20648280104034222 -4.079161293478508 L -0.2557132487450606 -4.455348179694921 Q -0.2609087400086216 -4.495048726245431 -0.2689929742979593 -4.521075224943896 Q -0.27707720858729706 -4.547101723642362 -0.2881565874716107 -4.562148695850486 Q -0.2992359663559243 -4.577195668058611 -0.31392136214103866 -4.582168060140265 Q -0.32860675792615296 -4.587140452221919 -0.34700457218126707 -4.584732785538805 Q -0.36588653944309474 -4.582261759206136 -0.3790399415440084 -4.573646187275034 Q -0.3921933436449221 -4.5650306153439315 -0.3992697025123658 -4.547607656277471 Q -0.4063460613798095 -4.530184697211011 -0.40746073421802886 -4.5029543651709885 Q -0.4085754070562482 -4.475724033130966 -0.40337991579268717 -4.436023486580456 L -0.3541494680879688 -4.059836600364044 Q -0.34908069612351905 -4.021104359826961 -0.34115486095807035 -3.9962882436452793 Q -0.33322902579262165 -3.971472127463598 -0.3220026098792847 -3.9571830645903217 Q -0.31077619396594774 -3.9428940017170455 -0.2959120813270323 -3.9384374424668827 Q -0.2810479686881168 -3.93398088321672 -0.26216600142628915 -3.936451909549389 M 0.2565696113870323 -3.8411489241419217 Q 0.23672593943733028 -3.8437966240913752 0.21391408080527535 -3.8500423183656878 Q 0.19110222217322043 -3.8562880126400003 0.16971073722937952 -3.8694870128489773 Q 0.1483192522855386 -3.882686013057954 0.12975185516948767 -3.9041288500790454 Q 0.11118445805343673 -3.9255716871001365 0.09903914309003518 -3.9582265476156953 Q 0.08689382812663365 -3.9908814081312545 0.08318745754932598 -4.03694222896873 Q 0.0794810869720183 -4.083003049806206 0.0877470770581163 -4.144954025649178 L 0.1268167958244388 -4.437769184906976 Q 0.13514736395808444 -4.500204152748722 0.15097809128354456 -4.543165570661745 Q 0.1668088186090047 -4.586126988574768 0.18730067453902172 -4.614180834881474 Q 0.20779253046903878 -4.642234681188181 0.23123557017493657 -4.657333240074468 Q 0.25467860988083435 -4.672431798960755 0.27892750174974135 -4.67880218567832 Q 0.3031763936186483 -4.685172572395884 0.3263114858462755 -4.685041356153785 Q 0.3494465780739027 -4.684910139911684 0.3688062580248315 -4.682327018009779 Q 0.38719795397821394 -4.679873052202969 0.40934840265965666 -4.674208216998751 Q 0.4314988513410994 -4.6685433817945325 0.4528097854044228 -4.656586650606263 Q 0.4741207194677462 -4.644629919417993 0.49305926867827904 -4.624122777370674 Q 0.5119978178888118 -4.603615635323356 0.5244174178753738 -4.57117048178341 Q 0.5368370178619359 -4.538725328243464 0.5407853844386301 -4.492632218382214 Q 0.5447337510153243 -4.446539108520964 0.5362740267865835 -4.3831361566816724 L 0.49720430802026094 -4.090320997423874 Q 0.4890028959817106 -4.028854013579675 0.4729301726568639 -3.9859248846904256 Q 0.4568574493320171 -3.9429957558011766 0.4363010153544525 -3.914457917495697 Q 0.41574458137688775 -3.885920079190217 0.39172068260089526 -3.8701601103533183 Q 0.36769678382490284 -3.854400141516419 0.34380272785967375 -3.84699719275376 Q 0.3199086718944448 -3.839594243991101 0.29719299361804313 -3.8391768901868804 Q 0.2744773153416415 -3.838759536382659 0.2565696113870323 -3.8411489241419217 M 0.2691623306588222 -3.9355273639027 Q 0.28755402661220464 -3.9330733980958894 0.30218731319536074 -3.9375248197248336 Q 0.31682059977851684 -3.9419762413537778 0.3278409492773459 -3.9562692914348894 Q 0.338861298776175 -3.970562341516001 0.34684957026077173 -3.9953584299998925 Q 0.3548378417453684 -4.020154518483784 0.3600040855491797 -4.058873878385642 L 0.41018122849369637 -4.4349356614324345 Q 0.41547662839260285 -4.474623005331838 0.4144304970193775 -4.501856056716068 Q 0.41338436564615216 -4.5290891081002975 0.4065938782616935 -4.546497533938832 Q 0.39980339087723493 -4.563905959777366 0.3869137115778651 -4.572522322115299 Q 0.3740240322784953 -4.581138684453232 0.3556323363251129 -4.583592650260043 Q 0.33675664837295727 -4.5861111941144 0.3218167877428669 -4.581208069510456 Q 0.30687692711277653 -4.576304944906513 0.2955177145432394 -4.561318195851015 Q 0.28415850197370224 -4.546331446795517 0.2760087853702364 -4.520325378314693 Q 0.2678590687667706 -4.494319309833869 0.2625636688678641 -4.454631965934465 L 0.2123865259233474 -4.078570182887672 Q 0.20722028211953616 -4.039850822985814 0.2084278586116306 -4.013827751598518 Q 0.2096354351037251 -3.9878046802112213 0.2167647855588918 -3.971089953347073 Q 0.22389413601405847 -3.9543752264829246 0.23709038936036256 -3.946210567119991 Q 0.2502866427066666 -3.9380459077570578 0.2691623306588222 -3.9355273639027 M 0.9159360082546832 -4.439002374540111 L 0.790892554640565 -4.48793640924817 L 0.8271927112967249 -4.580695916656461 L 1.194593113188389 -4.436918825586965 L 1.158292956532229 -4.344159318178674 L 1.0337042063857984 -4.392915410942339 L 0.7660795220188152 -3.709041395540034 L 0.6483113238877001 -3.7551283591378057 L 0.9159360082546832 -4.439002374540111 M 1.2768423193539749 -3.376568554814813 Q 1.26203104829341 -3.3893002466164934 1.2468818456032764 -3.406507669883289 Q 1.231732642913143 -3.4237150931500837 1.2211986785011186 -3.4462916021763337 Q 1.210664714089094 -3.4688681112025836 1.2071819919463613 -3.496651382137663 Q 1.2036992698036286 -3.524434653072742 1.2117175266545663 -3.558106904581997 Q 1.2197357835055038 -3.5917791560912518 1.2419573261548644 -3.632236920172127 Q 1.2641788688042248 -3.672694684253002 1.304920282569602 -3.7200907516468096 L 1.4974871210700174 -3.944111226437853 Q 1.5385468271304366 -3.991877575608174 1.5750762076570628 -4.019392512258376 Q 1.611605588183689 -4.046907448908578 1.6437181552487807 -4.059546414204324 Q 1.6758307223138722 -4.072185379500071 1.7035296536205338 -4.072199236544287 Q 1.7312285849271953 -4.072213093588503 1.754468246400164 -4.064792142658596 Q 1.7777079078731326 -4.057371191728689 1.7964654824747772 -4.045110582963362 Q 1.8152230570764218 -4.032849974198035 1.8296640463604725 -4.020436574691397 Q 1.8674327875649128 -3.9879707605971118 1.8837257588474328 -3.955614707756082 Q 1.9000187301299527 -3.9232586549150517 1.8996299552507092 -3.8917205767333596 Q 1.8992411803714657 -3.860182498551667 1.8847138199876903 -3.8301737861385 Q 1.8701864596039148 -3.8001650737253327 1.8466328297708063 -3.772764222263288 Q 1.8291267535434956 -3.7523987245550114 1.8122896120532146 -3.736931229569836 Q 1.7954524705629336 -3.72146373458466 1.7735550024989257 -3.7042291703453314 L 1.6957958294309603 -3.7710705523041534 L 1.723487259099615 -3.803285066860882 Q 1.7683664727005386 -3.855494797349373 1.7791681982815413 -3.8912815828516636 Q 1.7899699238625444 -3.9270683683539542 1.767753017271697 -3.946165906056475 Q 1.7544228733171887 -3.9576244286779874 1.7399691732207194 -3.9610343757729236 Q 1.72551547312425 -3.9644443228678603 1.7081876092630885 -3.9577691446653933 Q 1.690859745401927 -3.9510939664629268 1.6698359922977324 -3.933752245557549 Q 1.6488122391935378 -3.9164105246521714 1.622712271000093 -3.8860474189780136 L 1.3744442808673258 -3.5972276332969995 Q 1.3489808972639652 -3.56760509117587 1.3348885189505946 -3.545592964807806 Q 1.3207961406372242 -3.523580838439743 1.3169055773966198 -3.506320852575577 Q 1.3130150141560155 -3.489060866711411 1.3189008170270868 -3.475309024614815 Q 1.324786619898158 -3.461557182518219 1.3392276091822086 -3.4491437830115808 Q 1.3484846535950616 -3.4411864756355306 1.3606614958478696 -3.438123993279477 Q 1.3728383381006775 -3.435061510923423 1.3871164304182038 -3.438563299284784 Q 1.40139452273573 -3.4420650876461445 1.4172184424532037 -3.452608585167483 Q 1.4330423621706774 -3.463152082688821 1.4492752692178197 -3.4820364532910415 L 1.5024300824898353 -3.5438735099688996 L 1.590186863523682 -3.4684382360439434 L 1.5398966809070445 -3.4099337153547125 Q 1.4743284681283906 -3.3336556693928037 1.4083293362219464 -3.3272875310283685 Q 1.342330204315502 -3.3209193926639338 1.2768423193539749 -3.376568554814813 M 2.2131132045326365 -3.5996006550133703 L 2.297808493054454 -3.481282306475448 L 1.7094728281890945 -2.87038247112898 L 1.6350091852605166 -2.9744073278972203 L 1.7431458835560831 -3.0800372630279536 L 1.654471621748006 -3.2039141916985296 L 1.5201873847141603 -3.134812068868095 L 1.4454395294079927 -3.239233967074382 L 2.2131132045326365 -3.5996006550133703 M 1.8120425926474937 -3.147369919799403 L 2.115819371114453 -3.436879625694092 L 2.112693034960963 -3.4412470815126057 L 1.740421073494816 -3.2474243621871763 L 1.8120425926474937 -3.147369919799403 M 2.522191249039936 -3.0949638923093583 L 2.57151093977038 -2.9669274227755107 Q 2.579935655624691 -2.9450564244209745 2.5882051799622894 -2.918154731320911 Q 2.5964747042998875 -2.891253038220847 2.5995043019483783 -2.8623329236140207 Q 2.602533899596869 -2.8334128090071946 2.597798927705515 -2.8035947964352923 Q 2.593063955814161 -2.7737767838633896 2.575742951581014 -2.7453896778665974 Q 2.558421947347867 -2.7170025718698048 2.5256746875658473 -2.691306961432519 Q 2.492927427783828 -2.665611350995233 2.4400725150936986 -2.645251621013982 L 2.4204797457344265 -2.6377044797278284 Q 2.3316288149191235 -2.603479071569691 2.265983369371788 -2.6074946593967945 Q 2.200337923824453 -2.6115102472238982 2.1566019250897694 -2.651697833984558 L 1.8934869306717048 -2.406974199033784 L 1.8453958443366811 -2.531821147974261 L 2.0967116245371 -2.747406774169767 L 2.079686677914847 -2.791604416677892 L 1.7885290123200837 -2.679450386867381 L 1.7439482242576896 -2.7951844198268017 L 2.522191249039936 -3.0949638923093583 M 2.1717375239693553 -2.8066555193639173 Q 2.183672538096295 -2.7756716050283243 2.198756426022767 -2.756888976177313 Q 2.213840313949239 -2.7381063473263016 2.2351056723109277 -2.7311233985876866 Q 2.256371030672616 -2.724140449849072 2.285308003794416 -2.7284846769088262 Q 2.3142449769162163 -2.7328289039685805 2.35343051563476 -2.747923186540887 L 2.414942698506893 -2.771617699881136 Q 2.4450153212443806 -2.7832016841808134 2.464780140635339 -2.7970941496237582 Q 2.4845449600262977 -2.8109866150667027 2.493667804758439 -2.8294134826622845 Q 2.5027906494905796 -2.847840350257866 2.501376135535693 -2.8718884265178213 Q 2.4999616215808063 -2.895936502777777 2.4875000627129715 -2.9282873545105286 L 2.480654981081344 -2.946057540673589 L 2.164892442337728 -2.824425705526978 L 2.1717375239693553 -2.8066555193639173 M 2.7328462056597997 -2.419122626648761 L 2.773324291389139 -2.1127026099766866 L 2.6745728168218355 -2.099657539694246 L 2.6506568546373606 -2.280701909734302 L 2.4032940923633794 -2.2480252876052464 L 2.4217746085968375 -2.1081273653015664 L 2.3230231340295338 -2.0950822950191252 L 2.3045426177960757 -2.2349802173228053 L 2.0213582421986613 -2.1975715598952172 L 2.045913668612668 -2.01168643129794 L 1.9471621940453643 -1.998641361015499 L 1.9060446440864938 -2.309902136244794 L 2.7328462056597997 -2.419122626648761" fill="#212245" fill-rule="nonzero"></path></g><g transform="matrix(1,0,0,1,0,0)"><path d=" M -1.471169211647727 0.08367365056818177 L -1.470947265625 0.16379616477272724 Q -1.470947265625 0.2476917613636363 -1.4673961292613635 0.3482333096590909 Q -1.4671741832386362 0.3553355823863636 -1.4710582386363635 0.35866477272727265 Q -1.4749422940340908 0.36199396306818177 -1.4798251065340908 0.36199396306818177 Q -1.4847079190340908 0.36199396306818177 -1.4887029474431817 0.3582208806818181 Q -1.4926979758522727 0.3544477982954545 -1.4926979758522727 0.34734552556818177 Q -1.4893687855113635 0.24746981534090906 -1.4893687855113635 0.18088600852272724 L -1.4893687855113635 0.06591796874999994 Q -1.4893687855113635 0.05304509943181812 -1.4895907315340908 0.04172585227272724 Q -1.4944735440340908 0.060591264204545414 -1.5022416548295454 0.09077592329545453 Q -1.5199973366477273 0.15713778409090906 -1.527099609375 0.18255060369318177 Q -1.5342018821022727 0.2079634232954545 -1.5413041548295454 0.23259943181818177 Q -1.5559525923295454 0.28342507102272724 -1.568603515625 0.3218217329545454 Q -1.5699351917613635 0.3262606534090909 -1.5738192471590908 0.3284801136363636 Q -1.5777033025568181 0.3306995738636363 -1.5812544389204546 0.3306995738636363 Q -1.588134765625 0.3306995738636363 -1.590576171875 0.3218217329545454 Q -1.5916859019886362 0.31827059659090906 -1.5957919034090908 0.30462091619318177 Q -1.5998979048295454 0.2909712357954545 -1.6060014204545454 0.2708851207386363 Q -1.6121049360795454 0.2507990056818181 -1.619540127840909 0.22583007812499994 Q -1.6269753196022727 0.20086115056818177 -1.6348544034090908 0.1746715198863636 Q -1.642733487215909 0.14848188920454541 -1.6502796519886362 0.12273615056818177 Q -1.6578258167613635 0.09699041193181812 -1.6640403053977273 0.07523970170454541 Q -1.6691450639204544 0.0572620738636363 -1.6726962002840908 0.04416725852272724 L -1.6722523082386362 0.09920987215909088 Q -1.6722523082386362 0.19975142045454541 -1.6701438210227273 0.2654474431818181 Q -1.6680353338068181 0.3311434659090909 -1.6678133877840908 0.34179687499999994 Q -1.6675914417613635 0.35245028409090906 -1.6688121448863635 0.35489169034090906 Q -1.6700328480113635 0.35733309659090906 -1.672030362215909 0.35888671874999994 Q -1.6806862571022727 0.36621093749999994 -1.689120205965909 0.3584428267045454 Q -1.693115234375 0.35466974431818177 -1.6925603693181817 0.34512606534090906 Q -1.6920055042613635 0.3355823863636363 -1.691561612215909 0.32126686789772724 Q -1.6911177201704544 0.3069513494318181 -1.6908957741477273 0.2909712357954545 Q -1.6900079900568181 0.2532404119318181 -1.6900079900568181 0.2210582386363636 L -1.6926713423295454 0.019087357954545414 Q -1.6926713423295454 0.009099786931818121 -1.6880104758522727 0.004993785511363591 Q -1.683349609375 0.0008877840909090606 -1.6771351207386362 0.0008877840909090606 Q -1.6653719815340908 0.0008877840909090606 -1.6609330610795454 0.01509232954545453 Q -1.6604891690340908 0.01642400568181812 -1.658602627840909 0.022971413352272707 Q -1.6567160866477273 0.029518821022727237 -1.6536088423295454 0.04006125710227271 Q -1.6505015980113635 0.05060369318181812 -1.646395596590909 0.06447531960227271 Q -1.6422895951704544 0.07834694602272724 -1.6376287286931817 0.09432705965909088 Q -1.632967862215909 0.11030717329545453 -1.6278631036931817 0.12784090909090906 Q -1.610107421875 0.18887606534090903 -1.5788130326704546 0.2949662642045454 Q -1.5623890269886362 0.24813565340909086 -1.518221768465909 0.08256392045454541 Q -1.5095658735795454 0.04971590909090906 -1.5009099786931817 0.01553622159090906 Q -1.4969149502840908 0.0002219460227272374 -1.4824884588068181 0.0002219460227272374 Q -1.476717862215909 0.0002219460227272374 -1.4732776988636362 0.005881569602272707 Q -1.4698375355113635 0.011541193181818121 -1.4702814275568181 0.022194602272727237 Q -1.471169211647727 0.03706498579545453 -1.471169211647727 0.08367365056818177 M -1.323464133522727 0.36709872159090906 Q -1.369850852272727 0.36709872159090906 -1.3917125355113635 0.3191583806818181 Q -1.4135742187499998 0.27121803977272724 -1.4135742187499998 0.17755681818181815 Q -1.4135742187499998 0.1036487926136363 -1.388494318181818 0.05348899147727271 Q -1.3760653409090906 0.029074928977272707 -1.358309659090909 0.014537464488636298 Q -1.340553977272727 -5.551115123125783e-17 -1.317360617897727 -5.551115123125783e-17 Q -1.294167258522727 -5.551115123125783e-17 -1.2768554687499998 0.012096058238636298 Q -1.2595436789772725 0.024192116477272707 -1.2482244318181817 0.04705255681818177 Q -1.2260298295454544 0.09188565340909088 -1.2255859374999998 0.17755681818181815 Q -1.2251420454545452 0.26766690340909083 -1.2513316761363635 0.3178267045454545 Q -1.277077414772727 0.36709872159090906 -1.323464133522727 0.36709872159090906 M -1.2937233664772725 0.02607865767045453 Q -1.3041548295454544 0.019531249999999944 -1.316805752840909 0.019531249999999944 Q -1.3294566761363635 0.019531249999999944 -1.339666193181818 0.02607865767045453 Q -1.3498757102272725 0.03262606534090906 -1.3581986860795452 0.04416725852272724 Q -1.366521661931818 0.055708451704545414 -1.3728471235795452 0.07135564630681812 Q -1.3791725852272725 0.08700284090909088 -1.383611505681818 0.10498046874999994 Q -1.3922674005681817 0.14182350852272724 -1.3922674005681817 0.17855557528409086 Q -1.3922674005681817 0.2152876420454545 -1.3894930752840906 0.24014559659090906 Q -1.3867187499999998 0.2650035511363636 -1.3818359374999998 0.2830921519886363 Q -1.3769531249999998 0.30118075284090906 -1.370183771306818 0.3132768110795454 Q -1.3634144176136362 0.32537286931818177 -1.3556463068181817 0.33269708806818177 Q -1.341219815340909 0.3457919034090909 -1.3212446732954544 0.3457919034090909 Q -1.2622070312499998 0.3457919034090909 -1.2495561079545452 0.2372602982954545 Q -1.2466708096590908 0.21240234374999994 -1.2466708096590908 0.18665660511363633 Q -1.2466708096590908 0.16091086647727268 -1.2482244318181817 0.14160156249999994 Q -1.2497780539772725 0.12229225852272724 -1.2532182173295452 0.10442560369318177 Q -1.256658380681818 0.0865589488636363 -1.2620960582386362 0.07102272727272724 Q -1.2675337357954544 0.05548650568181812 -1.2754128196022725 0.04405628551136359 Q -1.2832919034090908 0.03262606534090906 -1.2937233664772725 0.02607865767045453 M -1.1034046519886362 0.17400568181818177 L -1.0945268110795452 0.1722301136363636 Q -1.061012961647727 0.17267400568181815 -1.042147549715909 0.18854314630681815 Q -1.0232821377840908 0.20441228693181815 -1.0232821377840908 0.23370916193181815 Q -1.0232821377840908 0.26944247159090906 -1.044588955965909 0.2998490767045454 Q -1.073219992897727 0.3409090909090909 -1.125155362215909 0.35711115056818177 Q -1.1571155894886362 0.36687677556818177 -1.165993430397727 0.3608842329545454 Q -1.1713201349431817 0.35733309659090906 -1.1713201349431817 0.3482333096590909 L -1.169100674715909 0.17023259943181815 L -1.169100674715909 0.14604048295454541 Q -1.169100674715909 0.11430220170454541 -1.1700994318181817 0.09410511363636359 Q -1.1710981889204544 0.07390802556818177 -1.1717640269886362 0.06036931818181812 Q -1.172429865056818 0.04683061079545453 -1.1729847301136362 0.03562233664772724 Q -1.1735395951704544 0.024414062499999944 -1.172096946022727 0.021417791193181768 Q -1.1706542968749998 0.01842151988636359 -1.1682128906249998 0.016867897727272707 Q -1.162664240056818 0.01309481534090906 -1.137029474431818 0.00821200284090906 Q -1.111394708806818 0.0033291903409090606 -1.0974121093749998 0.0033291903409090606 Q -1.0248357599431817 0.0033291903409090606 -1.0248357599431817 0.0645862926136363 Q -1.0248357599431817 0.11430220170454541 -1.077215021306818 0.1551402698863636 Q -1.089422052556818 0.16468394886363633 -1.1034046519886362 0.17400568181818177 M -1.1491255326704544 0.34002130681818177 Q -1.1307040127840906 0.33935546874999994 -1.1140580610795452 0.3318093039772727 Q -1.095192649147727 0.32293146306818177 -1.083651455965909 0.3141645951704545 Q -1.0721102627840908 0.30539772727272724 -1.0630104758522725 0.29385653409090906 Q -1.043035333806818 0.26855468749999994 -1.043035333806818 0.23615056818181815 Q -1.043035333806818 0.21329012784090903 -1.061012961647727 0.20108309659090903 Q -1.077215021306818 0.19020774147727268 -1.1018510298295452 0.19020774147727268 Q -1.1231578480113635 0.19020774147727268 -1.137362393465909 0.19509055397727268 Q -1.1457963423295452 0.19797585227272724 -1.1506791548295452 0.20019531249999994 Q -1.1506791548295452 0.20530007102272724 -1.150457208806818 0.21107066761363633 Q -1.150457208806818 0.22682883522727268 -1.1503462357954544 0.2454723011363636 Q -1.1502352627840906 0.2641157670454545 -1.1500133167613635 0.2827592329545454 Q -1.149569424715909 0.32293146306818177 -1.1491255326704544 0.34002130681818177 M -1.1506791548295452 0.1795543323863636 Q -1.120272549715909 0.17333984374999994 -1.086092862215909 0.14315518465909086 Q -1.061678799715909 0.12162642045454541 -1.0510253906249998 0.09521484374999994 Q -1.0456986860795452 0.08145419034090906 -1.0456986860795452 0.06769353693181812 Q -1.0456986860795452 0.05393288352272724 -1.050026633522727 0.045166015624999944 Q -1.054354580965909 0.03639914772727271 -1.061678799715909 0.030850497159090884 Q -1.075661399147727 0.02086292613636359 -1.100075461647727 0.02086292613636359 Q -1.1278187144886362 0.02086292613636359 -1.149569424715909 0.030850497159090884 Q -1.149569424715909 0.033735795454545414 -1.1497913707386362 0.03839666193181812 Q -1.1500133167613635 0.046386718749999944 -1.1502352627840906 0.06258877840909088 Q -1.1506791548295452 0.09499289772727271 -1.1506791548295452 0.13427734374999994 L -1.1506791548295452 0.1795543323863636 M -0.9389426491477271 0.0706898082386363 Q -0.9390536221590907 0.08278586647727271 -0.9390536221590907 0.16801313920454541 Q -0.9390536221590907 0.2532404119318181 -0.9363902698863634 0.34734552556818177 Q -0.9361683238636361 0.3544477982954545 -0.940496271306818 0.3582208806818181 Q -0.9448242187499998 0.36199396306818177 -0.9495960582386361 0.36199396306818177 Q -0.9543678977272725 0.36199396306818177 -0.9580300071022725 0.35866477272727265 Q -0.9616921164772725 0.3553355823863636 -0.961248224431818 0.3437943892045454 Q -0.9608043323863634 0.33225319602272724 -0.9603604403409088 0.3118341619318181 Q -0.9599165482954544 0.29141512784090906 -0.9594726562499998 0.2683327414772727 Q -0.9585848721590907 0.2226118607954545 -0.9585848721590907 0.18299449573863633 Q -0.9585848721590907 0.14337713068181815 -0.9586958451704544 0.1212935014204545 Q -0.958806818181818 0.09920987215909088 -0.9592507102272725 0.08056640624999994 Q -0.9599165482954544 0.03928444602272724 -0.9616921164772725 0.014648437499999944 Q -0.9623579545454544 0.007546164772727237 -0.9591397372159088 0.00410600142045453 Q -0.9559215198863634 0.0006658380681817677 -0.9508167613636361 0.0006658380681817677 Q -0.945712002840909 0.0006658380681817677 -0.9412730823863634 0.00410600142045453 Q -0.936834161931818 0.007546164772727237 -0.937167080965909 0.015758167613636298 Q -0.9374999999999998 0.023970170454545414 -0.9378329190340907 0.03196022727272724 Q -0.9381658380681817 0.03995028409090906 -0.9384987571022725 0.04927201704545453 Q -0.9388316761363634 0.058593749999999944 -0.9389426491477271 0.0706898082386363 M -0.8479447798295453 0.001331676136363591 Q -0.8344060724431817 0.001331676136363591 -0.8344060724431817 0.020640980113636298 Q -0.8344060724431817 0.04683061079545453 -0.8347389914772726 0.07579456676136359 Q -0.8350719105113634 0.10475852272727271 -0.8352938565340907 0.1282848011363636 Q -0.835515802556818 0.1518110795454545 -0.8357377485795453 0.18310546874999994 Q -0.8361816406249998 0.24813565340909086 -0.8366255326704544 0.34268465909090906 Q -0.7924582741477271 0.3435724431818181 -0.7518421519886362 0.33957741477272724 Q -0.7438520951704544 0.3386896306818181 -0.739413174715909 0.3429066051136363 Q -0.7349742542613635 0.3471235795454545 -0.7349742542613635 0.35178444602272724 Q -0.7349742542613635 0.35644531249999994 -0.7389692826704544 0.35988547585227265 Q -0.7429643110795453 0.3633256392045454 -0.7507324218749998 0.3628817471590909 Q -0.776034268465909 0.3608842329545454 -0.8052201704545453 0.36199396306818177 Q -0.8344060724431817 0.3631036931818181 -0.840398615056818 0.36399147727272724 Q -0.8463911576704544 0.3648792613636363 -0.8491654829545453 0.3643243963068181 Q -0.8519398082386362 0.36376953124999994 -0.854159268465909 0.36199396306818177 Q -0.859042080965909 0.3582208806818181 -0.8585981889204544 0.3508966619318181 Q -0.8559348366477271 0.2989612926136363 -0.8559348366477271 0.21517666903409086 Q -0.8559348366477271 0.13139204545454541 -0.8560458096590907 0.11152787642045453 Q -0.8561567826704544 0.09166370738636359 -0.856600674715909 0.07501775568181812 Q -0.857488458806818 0.04194779829545453 -0.8603737571022726 0.01553622159090906 Q -0.8610395951704544 0.008433948863636298 -0.8570445667613634 0.0048828124999999445 Q -0.8530495383522726 0.001331676136363591 -0.8479447798295453 0.001331676136363591 M -0.6669477982954544 0.24014559659090906 L -0.6665039062499998 0.3189364346590909 Q -0.6665039062499998 0.32958984374999994 -0.6665039062499998 0.33713600852272724 Q -0.6662819602272725 0.3404651988636363 -0.6662819602272725 0.3429066051136363 Q -0.6103515624999998 0.3429066051136363 -0.5919300426136362 0.3411310369318181 Q -0.5728426846590907 0.33913352272727265 -0.569735440340909 0.34002130681818177 Q -0.5666281960227271 0.3409090909090909 -0.5644087357954544 0.3429066051136363 Q -0.559969815340909 0.34690163352272724 -0.559969815340909 0.3516734730113636 Q -0.559969815340909 0.35644531249999994 -0.5641867897727271 0.35988547585227265 Q -0.5684037642045453 0.3633256392045454 -0.5759499289772725 0.3628817471590909 Q -0.6123490767045453 0.3599964488636363 -0.6416459517045453 0.3618829900568181 Q -0.6709428267045453 0.36376953124999994 -0.6744939630681817 0.3643243963068181 Q -0.678045099431818 0.3648792613636363 -0.680819424715909 0.3643243963068181 Q -0.6835937499999998 0.36376953124999994 -0.6858132102272725 0.36199396306818177 Q -0.6909179687499998 0.3582208806818181 -0.6904740767045453 0.3508966619318181 Q -0.6871448863636361 0.2867542613636363 -0.6871448863636361 0.20896218039772724 Q -0.6871448863636361 0.13117009943181815 -0.6870339133522725 0.11108398437499994 Q -0.686922940340909 0.09099786931818177 -0.686922940340909 0.0743519176136363 Q -0.6873668323863634 0.038618607954545414 -0.6884765624999998 0.023859197443181768 Q -0.6895862926136361 0.009099786931818121 -0.6879216974431817 0.006214488636363591 Q -0.6862571022727271 0.0033291903409090606 -0.6838156960227271 0.001997514204545414 Q -0.680486505681818 0.0004438920454545303 -0.6753817471590907 0.001331676136363591 Q -0.6660600142045453 0.0028852982954545303 -0.6507457386363634 0.0028852982954545303 Q -0.6212269176136361 0.0028852982954545303 -0.6104625355113634 0.0016645951704545303 Q -0.5996981534090907 0.0004438920454545303 -0.596590909090909 0.0014426491477272374 Q -0.5934836647727271 0.0024414062499999445 -0.5914861505681817 0.004216974431818121 Q -0.5870472301136362 0.00776811079545453 -0.5870472301136362 0.012872869318181768 Q -0.5870472301136362 0.01797762784090906 -0.5910422585227271 0.02130681818181812 Q -0.595037286931818 0.024636008522727237 -0.6019176136363634 0.024303089488636298 Q -0.608797940340909 0.023970170454545414 -0.6165660511363634 0.023415305397727237 Q -0.624334161931818 0.02286044034090906 -0.633212002840909 0.02241654829545453 Q -0.6518554687499998 0.021750710227272707 -0.6656161221590907 0.02286044034090906 Q -0.6656161221590907 0.04216974431818177 -0.665838068181818 0.06125710227272724 Q -0.6660600142045453 0.08389559659090906 -0.6662819602272725 0.10719992897727271 Q -0.6669477982954544 0.1697887073863636 -0.6669477982954544 0.19952947443181815 Q -0.6392045454545453 0.19952947443181815 -0.6261097301136361 0.1981977982954545 Q -0.6119051846590907 0.1966441761363636 -0.6082430752840907 0.19952947443181815 Q -0.6045809659090907 0.20241477272727268 -0.6045809659090907 0.20729758522727268 Q -0.6045809659090907 0.21950461647727268 -0.6274414062499998 0.21906072443181815 Q -0.6321022727272725 0.21883877840909086 -0.6358753551136361 0.21883877840909086 L -0.6538529829545453 0.2186168323863636 L -0.6669477982954544 0.2186168323863636 L -0.6669477982954544 0.24014559659090906 M -0.41415127840909066 0.2641157670454545 Q -0.4123757102272725 0.31760475852272724 -0.4114879261363634 0.34645774147727265 Q -0.41126598011363613 0.35400390624999994 -0.4151500355113634 0.35766601562499994 Q -0.41903409090909066 0.36132812499999994 -0.4235839843749998 0.36132812499999994 Q -0.42813387784090884 0.36132812499999994 -0.4316850142045452 0.35788796164772724 Q -0.4352361505681816 0.3544477982954545 -0.4352361505681816 0.34690163352272724 L -0.4352361505681816 0.2967418323863636 L -0.43545809659090884 0.22793856534090903 L -0.43545809659090884 0.16623757102272724 Q -0.43545809659090884 0.10586825284090906 -0.4364568536931816 0.08944424715909088 Q -0.4374556107954543 0.07302024147727271 -0.43789950284090884 0.0645862926136363 Q -0.4383433948863634 0.056152343749999944 -0.4390092329545452 0.04738547585227271 Q -0.439675071022727 0.038618607954545414 -0.4402299360795452 0.03018465909090906 Q -0.4407848011363634 0.021750710227272707 -0.43912020596590884 0.018643465909090884 Q -0.4374556107954543 0.01553622159090906 -0.4350142045454543 0.014093572443181768 Q -0.4325727982954543 0.01265092329545453 -0.429909446022727 0.012207031249999944 Q -0.4272460937499998 0.011763139204545414 -0.41859019886363613 0.009543678977272707 Q -0.3912908380681816 0.0028852982954545303 -0.37020596590909066 0.0028852982954545303 Q -0.3491210937499998 0.0028852982954545303 -0.3344726562499998 0.00821200284090906 Q -0.3198242187499998 0.013538707386363591 -0.30939275568181795 0.024414062499999944 Q -0.2871981534090907 0.04727450284090906 -0.2871981534090907 0.08966619318181812 Q -0.2871981534090907 0.14737215909090906 -0.3275923295454543 0.19553444602272724 Q -0.3602183948863634 0.23437499999999994 -0.41415127840909066 0.2641157670454545 M -0.4148171164772725 0.2430308948863636 Q -0.3076171874999998 0.18488103693181815 -0.3076171874999998 0.09166370738636359 Q -0.3076171874999998 0.04039417613636359 -0.3431285511363634 0.02574573863636359 Q -0.36954012784090884 0.014870383522727237 -0.4072709517045452 0.02774325284090906 Q -0.41170987215909066 0.029296874999999944 -0.4157049005681816 0.030850497159090884 Q -0.4172585227272725 0.06969105113636359 -0.4172585227272725 0.11075106534090906 L -0.4172585227272725 0.17777876420454541 Q -0.4172585227272725 0.1819957386363636 -0.4170365767045452 0.1859907670454545 Q -0.41681463068181795 0.18998579545454541 -0.4167036576704543 0.1945356889204545 Q -0.41659268465909066 0.1990855823863636 -0.4162597656249998 0.20629882812499994 Q -0.41592684659090884 0.21351207386363633 -0.4154829545454543 0.22438742897727268 Q -0.415261008522727 0.23215553977272724 -0.4148171164772725 0.2430308948863636 M -0.22294477982954522 0.25901100852272724 Q -0.22116921164772702 0.3093927556818181 -0.22005948153409066 0.34645774147727265 Q -0.2198375355113634 0.35400390624999994 -0.2238325639204543 0.35766601562499994 Q -0.22782759232954522 0.36132812499999994 -0.2323774857954543 0.36132812499999994 Q -0.2369273792613634 0.36132812499999994 -0.24036754261363613 0.35788796164772724 Q -0.24380770596590884 0.3544477982954545 -0.24380770596590884 0.34756747159090906 L -0.24380770596590884 0.18066406249999994 Q -0.24380770596590884 0.09410511363636359 -0.24802468039772702 0.02530184659090906 Q -0.24869051846590884 0.01553622159090906 -0.24269797585227249 0.011763139204545414 Q -0.24025656960227249 0.01020951704545453 -0.23759321732954522 0.009876598011363591 Q -0.23492986505681795 0.009543678977272707 -0.22583007812499975 0.006880326704545414 Q -0.20296963778409066 0.0004438920454545303 -0.18044211647727249 0.0004438920454545303 Q -0.1579145951704543 0.0004438920454545303 -0.14315518465909066 0.005437677556818121 Q -0.12839577414772704 0.010431463068181768 -0.11796431107954522 0.020640980113636298 Q -0.09576970880681795 0.04239169034090906 -0.09576970880681795 0.08478338068181812 Q -0.09576970880681795 0.13938210227272724 -0.13882723721590887 0.19020774147727268 Q -0.1457075639204543 0.19841974431818177 -0.15347567471590887 0.2064098011363636 Q -0.13172496448863613 0.2729936079545454 -0.10242808948863613 0.3422407670454545 Q -0.09710138494318157 0.35422585227272724 -0.10775479403409066 0.35977450284090906 Q -0.11041814630681795 0.36110617897727265 -0.11396928267045431 0.36110617897727265 Q -0.12195933948863613 0.36110617897727265 -0.12528852982954522 0.3520063920454545 Q -0.13239080255681795 0.3313654119318181 -0.13816139914772704 0.3123890269886363 Q -0.14393199573863613 0.2934126420454545 -0.14948064630681795 0.2754350142045454 Q -0.15924627130681795 0.2430308948863636 -0.16790216619318157 0.21994850852272724 Q -0.19231622869318157 0.24147727272727268 -0.22294477982954522 0.25901100852272724 M -0.22361061789772702 0.2379261363636363 Q -0.18854314630681795 0.21750710227272724 -0.1579145951704543 0.18243963068181815 Q -0.11685458096590887 0.1347212357954545 -0.11685458096590887 0.08678089488636359 Q -0.11685458096590887 0.03706498579545453 -0.15170010653409066 0.022638494318181768 Q -0.17078746448863613 0.014648437499999944 -0.2003062855113634 0.02041903409090906 Q -0.21428888494318157 0.023082386363636298 -0.22316672585227249 0.027521306818181768 Q -0.22605202414772702 0.09432705965909088 -0.22605202414772702 0.1396040482954545 Q -0.22605202414772702 0.18776633522727268 -0.2259410511363634 0.19142844460227268 Q -0.22583007812499975 0.19509055397727268 -0.22571910511363613 0.19808682528409086 Q -0.22560813210227249 0.20108309659090903 -0.22538618607954522 0.2043013139204545 Q -0.22516424005681795 0.20751953124999994 -0.22483132102272702 0.21351207386363633 Q -0.22449840198863613 0.21950461647727268 -0.22405450994318157 0.22904829545454541 Q -0.2238325639204543 0.23304332386363633 -0.22361061789772702 0.2379261363636363 M 0.023970170454545678 0.002219460227272707 Q 0.029296875000000222 0.002219460227272707 0.03373579545454568 0.006658380681818121 Q 0.038174715909091134 0.011097301136363591 0.040727095170454766 0.025190873579545414 Q 0.0432794744318184 0.03928444602272724 0.04849520596590931 0.06547407670454541 Q 0.05371093750000022 0.09166370738636359 0.060147372159091134 0.12140447443181815 Q 0.06658380681818205 0.15114524147727268 0.07368607954545475 0.18277254971590903 Q 0.08078835227272749 0.21439985795454541 0.08789062500000022 0.24414062499999994 Q 0.10498046875000022 0.3138316761363636 0.11452414772727293 0.3460138494318181 Q 0.11674360795454566 0.35422585227272724 0.11330344460227293 0.35910866477272724 Q 0.10986328125000022 0.36399147727272724 0.10564630681818205 0.36399147727272724 Q 0.10142933238636384 0.36399147727272724 0.09798916903409113 0.36155007102272724 Q 0.0945490056818184 0.35910866477272724 0.09188565340909113 0.3471235795454545 Q 0.08922230113636384 0.33513849431818177 0.08322975852272749 0.30828302556818177 Q 0.07723721590909113 0.28142755681818177 0.07035688920454566 0.25057705965909083 Q 0.0701349431818184 0.24924538352272724 0.06991299715909113 0.24813565340909086 Q 0.054820667613636576 0.24746981534090906 0.027299360795454766 0.24746981534090906 Q -0.005104758522727057 0.24746981534090906 -0.02219460227272705 0.24835759943181812 Q -0.022416548295454322 0.24968927556818177 -0.0226384943181816 0.2510209517045454 Q -0.036177201704545234 0.3162730823863636 -0.042613636363636145 0.3520063920454545 Q -0.04483309659090887 0.3633256392045454 -0.0543767755681816 0.3633256392045454 Q -0.06436434659090887 0.3633256392045454 -0.0665838068181816 0.3535600142045454 Q -0.06724964488636341 0.3506747159090909 -0.06525213068181795 0.34446022727272724 Q -0.06325461647727251 0.3382457386363636 -0.059370561079545234 0.3230424360795454 Q -0.05548650568181796 0.30783913352272724 -0.050936612215908866 0.2881969105113636 Q -0.04638671874999978 0.26855468749999994 -0.041281960227272506 0.2452503551136363 Q -0.036177201704545234 0.22194602272727268 -0.03085049715909069 0.19731001420454541 Q -0.025523792613636145 0.17267400568181815 -0.0201970880681816 0.14770507812499994 Q -0.014870383522727057 0.12273615056818177 -0.009987571022727057 0.09943181818181812 Q -0.005104758522727057 0.07612748579545453 -0.0007768110795452338 0.055708451704545414 Q 0.0035511363636365895 0.0352894176136363 0.006214488636363855 0.02330433238636359 Q 0.010431463068182031 0.002219460227272707 0.023970170454545678 0.002219460227272707 M -0.017977627840908873 0.22771661931818177 Q -0.0011097301136361454 0.22860440340909086 0.02752130681818203 0.22860440340909086 Q 0.05126953125000022 0.22860440340909086 0.06547407670454566 0.22793856534090903 Q 0.06081321022727296 0.20774147727272724 0.05615234375000022 0.18643465909090903 Q 0.04882812500000022 0.15336470170454541 0.04216974431818203 0.12229225852272724 Q 0.0310724431818184 0.07146661931818177 0.023082386363636576 0.03306995738636359 Q 0.01797762784090931 0.058593749999999944 0.00843394886363659 0.10253906249999994 Q -0.00399502840909069 0.16113281249999994 -0.010431463068181601 0.1917613636363636 Q -0.014204545454545234 0.21018288352272724 -0.017977627840908873 0.22771661931818177 M 0.2879749644886366 0.2703302556818181 Q 0.2879749644886366 0.2630060369318181 0.2916370738636366 0.2589000355113636 Q 0.2952991832386366 0.25479403409090906 0.30007102272727293 0.25479403409090906 Q 0.3048428622159093 0.25479403409090906 0.3085049715909093 0.25823419744318177 Q 0.3121670809659093 0.2616743607954545 0.31172318892045475 0.26877663352272724 Q 0.309503728693182 0.3136097301136363 0.287531072443182 0.3409090909090909 Q 0.2664462002840911 0.36709872159090906 0.2347079190340911 0.36709872159090906 Q 0.1747824928977275 0.36709872159090906 0.15724875710227293 0.27743252840909083 Q 0.15059037642045475 0.24436257102272724 0.15059037642045475 0.1994185014204545 Q 0.15059037642045475 0.15447443181818177 0.15613902698863658 0.11929598721590906 Q 0.1616876775568184 0.0841175426136363 0.1730069247159093 0.058149857954545414 Q 0.19719904119318205 0.0026633522727272374 0.24181019176136384 0.0026633522727272374 Q 0.2764337713068184 0.0026633522727272374 0.29307972301136387 0.029962713068181768 Q 0.3106134588068184 0.05903764204545453 0.3106134588068184 0.1249556107954545 Q 0.3106134588068184 0.1322798295454545 0.3072842684659093 0.1359419389204545 Q 0.3039550781250002 0.1396040482954545 0.2992942116477275 0.1396040482954545 Q 0.28908469460227293 0.1396040482954545 0.28908469460227293 0.12673117897727268 Q 0.28908469460227293 0.04461115056818177 0.26289506392045475 0.028852982954545414 Q 0.2535733309659093 0.02330433238636359 0.24114435369318205 0.02330433238636359 Q 0.22871537642045475 0.02330433238636359 0.2188387784090911 0.030295632102272707 Q 0.2089621803977275 0.03728693181818177 0.20130504261363658 0.049604936079545414 Q 0.19364790482954566 0.06192294034090906 0.18809925426136384 0.07867986505681812 Q 0.18255060369318205 0.09543678977272724 0.17899946732954566 0.11474609374999994 Q 0.17189719460227293 0.15380859374999994 0.17189719460227293 0.19187233664772724 Q 0.17189719460227293 0.2299360795454545 0.17433860085227293 0.25290749289772724 Q 0.17678000710227293 0.27587890624999994 0.1812189275568184 0.2921919389204545 Q 0.18565784801136384 0.30850497159090906 0.19176136363636384 0.31882546164772724 Q 0.19786487926136384 0.3291459517045454 0.20518909801136384 0.33513849431818177 Q 0.2176180752840911 0.3455699573863636 0.23692737926136384 0.3455699573863636 Q 0.2584561434659093 0.3455699573863636 0.2722167968750002 0.32803622159090906 Q 0.2884188565340911 0.30783913352272724 0.2879749644886366 0.2703302556818181 M 0.4070490056818184 0.0031072443181817677 Q 0.41326349431818205 0.0031072443181817677 0.4869495738636366 0.001331676136363591 Q 0.49715909090909116 0.001331676136363591 0.5009321732954548 0.009099786931818121 Q 0.5018199573863639 0.011319247159090884 0.5018199573863639 0.014204545454545414 Q 0.5018199573863639 0.017089843749999944 0.4984907670454548 0.02008611505681812 Q 0.4951615767045457 0.023082386363636298 0.4860617897727275 0.02286044034090906 Q 0.4769620028409093 0.022638494318181768 0.4684170809659093 0.022194602272727237 Q 0.45987215909090934 0.021750710227272707 0.45254794034090934 0.021528764204545414 Q 0.4394531250000002 0.021084872159090884 0.4301313920454548 0.02130681818181812 Q 0.4283558238636366 0.07235440340909088 0.4283558238636366 0.13205788352272724 Q 0.4283558238636366 0.19597833806818177 0.4284667968750002 0.21961558948863633 Q 0.42857776988636387 0.24325284090909086 0.4290216619318184 0.2647816051136363 Q 0.4296875000000002 0.31982421874999994 0.43035333806818205 0.34645774147727265 Q 0.43057528409090934 0.35400390624999994 0.42691317471590934 0.35766601562499994 Q 0.42325106534090934 0.36132812499999994 0.4189231178977275 0.36132812499999994 Q 0.4145951704545457 0.36132812499999994 0.41048916903409116 0.35788796164772724 Q 0.4063831676136366 0.3544477982954545 0.4063831676136366 0.34756747159090906 L 0.40616122159090934 0.3184925426136363 L 0.40838068181818205 0.10653409090909088 Q 0.40838068181818205 0.04727450284090906 0.40682705965909116 0.02130681818181812 Q 0.3950639204545457 0.021084872159090884 0.37886186079545475 0.022194602272727237 Q 0.35977450284090934 0.023526278409090884 0.35122958096590934 0.02408114346590906 Q 0.34268465909090934 0.024636008522727237 0.339133522727273 0.02130681818181812 Q 0.3355823863636366 0.01797762784090906 0.3355823863636366 0.013649680397727237 Q 0.3355823863636366 0.009321732954545414 0.339133522727273 0.005104758522727237 Q 0.34268465909090934 0.0008877840909090606 0.3505637428977275 0.0012207031249999445 Q 0.3584428267045457 0.0015536221590908839 0.36421342329545475 0.0017755681818181213 Q 0.36998401988636387 0.001997514204545414 0.3743119673295457 0.002219460227272707 Q 0.3786399147727275 0.0024414062499999445 0.3819691051136366 0.0026633522727272374 Q 0.3852982954545457 0.0028852982954545303 0.3887384588068184 0.0029962713068181213 Q 0.39217862215909116 0.0031072443181817677 0.3966175426136366 0.0031072443181817677 L 0.4070490056818184 0.0031072443181817677 M 0.5668501420454548 0.0706898082386363 Q 0.5667391690340912 0.08278586647727271 0.5667391690340912 0.16801313920454541 Q 0.5667391690340912 0.2532404119318181 0.5694025213068185 0.34734552556818177 Q 0.5696244673295457 0.3544477982954545 0.5652965198863639 0.3582208806818181 Q 0.5609685724431821 0.36199396306818177 0.5561967329545457 0.36199396306818177 Q 0.5514248934659094 0.36199396306818177 0.5477627840909094 0.35866477272727265 Q 0.5441006747159094 0.3553355823863636 0.5445445667613639 0.3437943892045454 Q 0.5449884588068185 0.33225319602272724 0.545432350852273 0.3118341619318181 Q 0.5458762428977275 0.29141512784090906 0.5463201349431821 0.2683327414772727 Q 0.5472079190340912 0.2226118607954545 0.5472079190340912 0.18299449573863633 Q 0.5472079190340912 0.14337713068181815 0.5470969460227275 0.1212935014204545 Q 0.5469859730113639 0.09920987215909088 0.5465420809659094 0.08056640624999994 Q 0.5458762428977275 0.03928444602272724 0.5441006747159094 0.014648437499999944 Q 0.5434348366477275 0.007546164772727237 0.546653053977273 0.00410600142045453 Q 0.5498712713068185 0.0006658380681817677 0.5549760298295457 0.0006658380681817677 Q 0.5600807883522729 0.0006658380681817677 0.5645197088068185 0.00410600142045453 Q 0.5689586292613639 0.007546164772727237 0.5686257102272729 0.015758167613636298 Q 0.5682927911931821 0.023970170454545414 0.5679598721590912 0.03196022727272724 Q 0.5676269531250002 0.03995028409090906 0.5672940340909094 0.04927201704545453 Q 0.5669611150568185 0.058593749999999944 0.5668501420454548 0.0706898082386363 M 0.6829279119318185 0.0031072443181817677 Q 0.6891424005681821 0.0031072443181817677 0.7628284801136366 0.001331676136363591 Q 0.7730379971590912 0.001331676136363591 0.7768110795454548 0.009099786931818121 Q 0.7776988636363639 0.011319247159090884 0.7776988636363639 0.014204545454545414 Q 0.7776988636363639 0.017089843749999944 0.7743696732954548 0.02008611505681812 Q 0.7710404829545456 0.023082386363636298 0.7619406960227275 0.02286044034090906 Q 0.7528409090909093 0.022638494318181768 0.7442959872159093 0.022194602272727237 Q 0.7357510653409093 0.021750710227272707 0.7284268465909093 0.021528764204545414 Q 0.7153320312500002 0.021084872159090884 0.7060102982954548 0.02130681818181812 Q 0.7042347301136366 0.07235440340909088 0.7042347301136366 0.13205788352272724 Q 0.7042347301136366 0.19597833806818177 0.7043457031250002 0.21961558948863633 Q 0.7044566761363639 0.24325284090909086 0.7049005681818185 0.2647816051136363 Q 0.7055664062500002 0.31982421874999994 0.7062322443181821 0.34645774147727265 Q 0.7064541903409093 0.35400390624999994 0.7027920809659093 0.35766601562499994 Q 0.6991299715909093 0.36132812499999994 0.6948020241477275 0.36132812499999994 Q 0.6904740767045456 0.36132812499999994 0.6863680752840912 0.35788796164772724 Q 0.6822620738636366 0.3544477982954545 0.6822620738636366 0.34756747159090906 L 0.6820401278409093 0.3184925426136363 L 0.6842595880681821 0.10653409090909088 Q 0.6842595880681821 0.04727450284090906 0.6827059659090912 0.02130681818181812 Q 0.6709428267045456 0.021084872159090884 0.6547407670454548 0.022194602272727237 Q 0.6356534090909093 0.023526278409090884 0.6271084872159093 0.02408114346590906 Q 0.6185635653409093 0.024636008522727237 0.6150124289772729 0.02130681818181812 Q 0.6114612926136366 0.01797762784090906 0.6114612926136366 0.013649680397727237 Q 0.6114612926136366 0.009321732954545414 0.6150124289772729 0.005104758522727237 Q 0.6185635653409093 0.0008877840909090606 0.6264426491477275 0.0012207031249999445 Q 0.6343217329545456 0.0015536221590908839 0.6400923295454548 0.0017755681818181213 Q 0.6458629261363639 0.001997514204545414 0.6501908735795456 0.002219460227272707 Q 0.6545188210227275 0.0024414062499999445 0.6578480113636366 0.0026633522727272374 Q 0.6611772017045456 0.0028852982954545303 0.6646173650568185 0.0029962713068181213 Q 0.6680575284090912 0.0031072443181817677 0.6724964488636366 0.0031072443181817677 L 0.6829279119318185 0.0031072443181817677 M 0.8427290482954548 0.0706898082386363 Q 0.8426180752840912 0.08278586647727271 0.8426180752840912 0.16801313920454541 Q 0.8426180752840912 0.2532404119318181 0.8452814275568185 0.34734552556818177 Q 0.8455033735795457 0.3544477982954545 0.8411754261363639 0.3582208806818181 Q 0.8368474786931821 0.36199396306818177 0.8320756392045457 0.36199396306818177 Q 0.8273037997159094 0.36199396306818177 0.8236416903409094 0.35866477272727265 Q 0.8199795809659094 0.3553355823863636 0.8204234730113639 0.3437943892045454 Q 0.8208673650568185 0.33225319602272724 0.821311257102273 0.3118341619318181 Q 0.8217551491477275 0.29141512784090906 0.8221990411931821 0.2683327414772727 Q 0.8230868252840912 0.2226118607954545 0.8230868252840912 0.18299449573863633 Q 0.8230868252840912 0.14337713068181815 0.8229758522727275 0.1212935014204545 Q 0.8228648792613639 0.09920987215909088 0.8224209872159094 0.08056640624999994 Q 0.8217551491477275 0.03928444602272724 0.8199795809659094 0.014648437499999944 Q 0.8193137428977275 0.007546164772727237 0.822531960227273 0.00410600142045453 Q 0.8257501775568185 0.0006658380681817677 0.8308549360795457 0.0006658380681817677 Q 0.8359596946022729 0.0006658380681817677 0.8403986150568185 0.00410600142045453 Q 0.8448375355113639 0.007546164772727237 0.8445046164772729 0.015758167613636298 Q 0.8441716974431821 0.023970170454545414 0.8438387784090912 0.03196022727272724 Q 0.8435058593750002 0.03995028409090906 0.8431729403409094 0.04927201704545453 Q 0.8428400213068185 0.058593749999999944 0.8427290482954548 0.0706898082386363 M 0.9974254261363639 0.36709872159090906 Q 0.9510387073863639 0.36709872159090906 0.9291770241477275 0.3191583806818181 Q 0.9073153409090912 0.27121803977272724 0.9073153409090912 0.17755681818181815 Q 0.9073153409090912 0.1036487926136363 0.9323952414772729 0.05348899147727271 Q 0.9448242187500002 0.029074928977272707 0.9625799005681821 0.014537464488636298 Q 0.9803355823863639 -5.551115123125783e-17 1.0035289417613638 -5.551115123125783e-17 Q 1.0267223011363638 -5.551115123125783e-17 1.044034090909091 0.012096058238636298 Q 1.0613458806818183 0.024192116477272707 1.0726651278409094 0.04705255681818177 Q 1.0948597301136367 0.09188565340909088 1.095303622159091 0.17755681818181815 Q 1.0957475142045456 0.26766690340909083 1.0695578835227275 0.3178267045454545 Q 1.0438121448863638 0.36709872159090906 0.9974254261363639 0.36709872159090906 M 1.0271661931818183 0.02607865767045453 Q 1.0167347301136367 0.019531249999999944 1.004083806818182 0.019531249999999944 Q 0.9914328835227275 0.019531249999999944 0.9812233664772729 0.02607865767045453 Q 0.9710138494318185 0.03262606534090906 0.9626908735795456 0.04416725852272724 Q 0.9543678977272729 0.055708451704545414 0.9480424360795456 0.07135564630681812 Q 0.9417169744318185 0.08700284090909088 0.9372780539772729 0.10498046874999994 Q 0.9286221590909093 0.14182350852272724 0.9286221590909093 0.17855557528409086 Q 0.9286221590909093 0.2152876420454545 0.9313964843750002 0.24014559659090906 Q 0.9341708096590912 0.2650035511363636 0.9390536221590912 0.2830921519886363 Q 0.9439364346590912 0.30118075284090906 0.9507057883522729 0.3132768110795454 Q 0.9574751420454548 0.32537286931818177 0.9652432528409093 0.33269708806818177 Q 0.9796697443181821 0.3457919034090909 0.9996448863636366 0.3457919034090909 Q 1.058682528409091 0.3457919034090909 1.0713334517045456 0.2372602982954545 Q 1.0742187500000002 0.21240234374999994 1.0742187500000002 0.18665660511363633 Q 1.0742187500000002 0.16091086647727268 1.0726651278409094 0.14160156249999994 Q 1.0711115056818183 0.12229225852272724 1.0676713423295456 0.10442560369318177 Q 1.064231178977273 0.0865589488636363 1.0587935014204548 0.07102272727272724 Q 1.0533558238636367 0.05548650568181812 1.0454767400568183 0.04405628551136359 Q 1.0375976562500002 0.03262606534090906 1.0271661931818183 0.02607865767045453 M 1.319580078125 0.014204545454545414 Q 1.3182484019886365 0.12473366477272724 1.3182484019886365 0.17056551846590906 Q 1.3182484019886365 0.21639737215909086 1.318359375 0.23781516335227268 Q 1.3184703480113638 0.2592329545454545 1.318692294034091 0.27854225852272724 Q 1.3191361860795456 0.3193803267045454 1.3196910511363638 0.3343616832386363 Q 1.3202459161931819 0.34934303977272724 1.3189142400568183 0.35222833806818177 Q 1.3175825639204546 0.3551136363636363 1.3153631036931819 0.35711115056818177 Q 1.3062633167613638 0.3653231534090909 1.2960537997159092 0.35866477272727265 Q 1.2920587713068183 0.3560014204545454 1.290283203125 0.3506747159090909 Q 1.270751953125 0.2934126420454545 1.2432306463068183 0.2262739701704545 Q 1.2157093394886365 0.1591352982954545 1.2048339843750002 0.13139204545454541 Q 1.185080788352273 0.08101029829545453 1.170432350852273 0.039062499999999944 L 1.1733176491477273 0.3486772017045454 Q 1.1733176491477273 0.3555575284090909 1.169766512784091 0.35888671874999994 Q 1.1662153764204546 0.36221590909090906 1.1616654829545456 0.36221590909090906 Q 1.1571155894886365 0.36221590909090906 1.1532315340909092 0.35855379971590906 Q 1.1493474786931819 0.35489169034090906 1.1495694247159092 0.34756747159090906 Q 1.1517888849431819 0.28653231534090906 1.1517888849431819 0.20840731534090903 L 1.1517888849431819 0.0767933238636363 Q 1.1517888849431819 0.04239169034090906 1.1513449928977273 0.01753373579545453 Q 1.1513449928977273 0.009321732954545414 1.156338778409091 0.004993785511363591 Q 1.1613325639204546 0.0006658380681817677 1.1668812144886365 0.0006658380681817677 Q 1.1793101917613638 0.0006658380681817677 1.1833052201704546 0.012428977272727237 Q 1.1873002485795456 0.024192116477272707 1.1946244673295456 0.04405628551136359 Q 1.2019486860795456 0.06392045454545453 1.2110484730113638 0.08822354403409088 Q 1.2201482599431819 0.11252663352272724 1.2305797230113638 0.13971502130681815 Q 1.2410111860795456 0.16690340909090906 1.2514426491477273 0.19386985085227268 Q 1.2618741122159092 0.22083629261363633 1.2716397372159092 0.24613813920454541 Q 1.2814053622159092 0.2714399857954545 1.289395419034091 0.29208096590909083 Q 1.297385475852273 0.31272194602272724 1.3029341264204546 0.32737038352272724 Q 1.3031560724431819 0.32803622159090906 1.3033780184659092 0.3284801136363636 Q 1.301602450284091 0.2849786931818181 1.3004927201704546 0.23370916193181815 Q 1.2993829900568183 0.1713423295454545 1.298606178977273 0.14026988636363633 Q 1.2978293678977273 0.10919744318181812 1.2970525568181819 0.07734818892045453 Q 1.2962757457386365 0.045498934659090884 1.295166015625 0.014204545454545414 Q 1.295166015625 0.007102272727272707 1.2990500710227273 0.0036621093749999445 Q 1.3029341264204546 0.0002219460227272374 1.3075949928977273 0.0002219460227272374 Q 1.312255859375 0.0002219460227272374 1.31591796875 0.0036621093749999445 Q 1.319580078125 0.007102272727272707 1.319580078125 0.014204545454545414 M 1.4113547585227275 0.24014559659090906 L 1.4117986505681819 0.3189364346590909 Q 1.4117986505681819 0.32958984374999994 1.4117986505681819 0.33713600852272724 Q 1.4120205965909092 0.3404651988636363 1.4120205965909092 0.3429066051136363 Q 1.4679509943181819 0.3429066051136363 1.4863725142045456 0.3411310369318181 Q 1.505459872159091 0.33913352272727265 1.508567116477273 0.34002130681818177 Q 1.5116743607954546 0.3409090909090909 1.5138938210227275 0.3429066051136363 Q 1.518332741477273 0.34690163352272724 1.518332741477273 0.3516734730113636 Q 1.518332741477273 0.35644531249999994 1.5141157670454546 0.35988547585227265 Q 1.5098987926136365 0.3633256392045454 1.5023526278409092 0.3628817471590909 Q 1.4659534801136365 0.3599964488636363 1.4366566051136365 0.3618829900568181 Q 1.4073597301136365 0.36376953124999994 1.4038085937500002 0.3643243963068181 Q 1.4002574573863638 0.3648792613636363 1.397483132102273 0.3643243963068181 Q 1.3947088068181819 0.36376953124999994 1.3924893465909092 0.36199396306818177 Q 1.3873845880681819 0.3582208806818181 1.3878284801136365 0.3508966619318181 Q 1.3911576704545456 0.2867542613636363 1.3911576704545456 0.20896218039772724 Q 1.3911576704545456 0.13117009943181815 1.3912686434659092 0.11108398437499994 Q 1.391379616477273 0.09099786931818177 1.391379616477273 0.0743519176136363 Q 1.3909357244318183 0.038618607954545414 1.3898259943181819 0.023859197443181768 Q 1.3887162642045456 0.009099786931818121 1.3903808593750002 0.006214488636363591 Q 1.3920454545454546 0.0033291903409090606 1.3944868607954546 0.001997514204545414 Q 1.3978160511363638 0.0004438920454545303 1.402920809659091 0.001331676136363591 Q 1.4122425426136365 0.0028852982954545303 1.4275568181818183 0.0028852982954545303 Q 1.4570756392045456 0.0028852982954545303 1.4678400213068183 0.0016645951704545303 Q 1.478604403409091 0.0004438920454545303 1.481711647727273 0.0014426491477272374 Q 1.4848188920454546 0.0024414062499999445 1.4868164062500002 0.004216974431818121 Q 1.4912553267045456 0.00776811079545453 1.4912553267045456 0.012872869318181768 Q 1.4912553267045456 0.01797762784090906 1.4872602982954546 0.02130681818181812 Q 1.4832652698863638 0.024636008522727237 1.4763849431818183 0.024303089488636298 Q 1.469504616477273 0.023970170454545414 1.4617365056818183 0.023415305397727237 Q 1.4539683948863638 0.02286044034090906 1.445090553977273 0.02241654829545453 Q 1.4264470880681819 0.021750710227272707 1.412686434659091 0.02286044034090906 Q 1.412686434659091 0.04216974431818177 1.4124644886363638 0.06125710227272724 Q 1.4122425426136365 0.08389559659090906 1.4120205965909092 0.10719992897727271 Q 1.4113547585227275 0.1697887073863636 1.4113547585227275 0.19952947443181815 Q 1.4390980113636365 0.19952947443181815 1.4521928267045456 0.1981977982954545 Q 1.466397372159091 0.1966441761363636 1.470059481534091 0.19952947443181815 Q 1.473721590909091 0.20241477272727268 1.473721590909091 0.20729758522727268 Q 1.473721590909091 0.21950461647727268 1.4508611505681819 0.21906072443181815 Q 1.4462002840909092 0.21883877840909086 1.4424272017045456 0.21883877840909086 L 1.4244495738636365 0.2186168323863636 L 1.4113547585227275 0.2186168323863636 L 1.4113547585227275 0.24014559659090906 M 1.5819202769886365 0.25901100852272724 Q 1.5836958451704546 0.3093927556818181 1.584805575284091 0.34645774147727265 Q 1.5850275213068183 0.35400390624999994 1.5810324928977273 0.35766601562499994 Q 1.5770374644886365 0.36132812499999994 1.5724875710227273 0.36132812499999994 Q 1.5679376775568183 0.36132812499999994 1.5644975142045456 0.35788796164772724 Q 1.5610573508522727 0.3544477982954545 1.5610573508522727 0.34756747159090906 L 1.5610573508522727 0.18066406249999994 Q 1.5610573508522727 0.09410511363636359 1.5568403764204546 0.02530184659090906 Q 1.5561745383522727 0.01553622159090906 1.5621670809659092 0.011763139204545414 Q 1.5646084872159092 0.01020951704545453 1.5672718394886365 0.009876598011363591 Q 1.5699351917613638 0.009543678977272707 1.5790349786931819 0.006880326704545414 Q 1.601895419034091 0.0004438920454545303 1.6244229403409092 0.0004438920454545303 Q 1.6469504616477273 0.0004438920454545303 1.661709872159091 0.005437677556818121 Q 1.6764692826704546 0.010431463068181768 1.6869007457386365 0.020640980113636298 Q 1.7090953480113638 0.04239169034090906 1.7090953480113638 0.08478338068181812 Q 1.7090953480113638 0.13938210227272724 1.6660378196022727 0.19020774147727268 Q 1.6591574928977273 0.19841974431818177 1.6513893821022727 0.2064098011363636 Q 1.6731400923295454 0.2729936079545454 1.7024369673295454 0.3422407670454545 Q 1.707763671875 0.35422585227272724 1.697110262784091 0.35977450284090906 Q 1.6944469105113638 0.36110617897727265 1.6908957741477273 0.36110617897727265 Q 1.6829057173295454 0.36110617897727265 1.6795765269886365 0.3520063920454545 Q 1.6724742542613638 0.3313654119318181 1.6667036576704546 0.3123890269886363 Q 1.6609330610795454 0.2934126420454545 1.6553844105113638 0.2754350142045454 Q 1.6456187855113638 0.2430308948863636 1.636962890625 0.21994850852272724 Q 1.612548828125 0.24147727272727268 1.5819202769886365 0.25901100852272724 M 1.5812544389204546 0.2379261363636363 Q 1.6163219105113638 0.21750710227272724 1.6469504616477273 0.18243963068181815 Q 1.6880104758522727 0.1347212357954545 1.6880104758522727 0.08678089488636359 Q 1.6880104758522727 0.03706498579545453 1.653164950284091 0.022638494318181768 Q 1.6340775923295454 0.014648437499999944 1.6045587713068183 0.02041903409090906 Q 1.590576171875 0.023082386363636298 1.5816983309659092 0.027521306818181768 Q 1.5788130326704546 0.09432705965909088 1.5788130326704546 0.1396040482954545 Q 1.5788130326704546 0.18776633522727268 1.5789240056818183 0.19142844460227268 Q 1.5790349786931819 0.19509055397727268 1.5791459517045456 0.19808682528409086 Q 1.5792569247159092 0.20108309659090903 1.5794788707386365 0.2043013139204545 Q 1.5797008167613638 0.20751953124999994 1.5800337357954546 0.21351207386363633 Q 1.5803666548295456 0.21950461647727268 1.580810546875 0.22904829545454541 Q 1.5810324928977273 0.23304332386363633 1.5812544389204546 0.2379261363636363" fill="#64c6c4" fill-rule="nonzero"></path></g><g transform="matrix(1,0,0,1,0,0)"><g clip-path="url(#SvgjsClipPath30680)"><g clip-path="url(#a07ce8861-3882-4acb-90d6-89fb11aabe74ab4d5766-a5e7-4787-8f6e-05517c65ee31)"><path d=" M -0.6009967809480895 -2.075032367583842 C -0.1657032336246782 -1.6969220632324609 0.6270724825684248 -1.420938124655343 0.3187388409168461 -0.6371544520506665 C 0.4376412373148917 -0.846797851048275 0.5420412566961141 -1.0994982090789338 0.6088205715331072 -1.3375537305935867 C 0.7890375363794884 -1.9779832583604586 0.5075660578938439 -2.771317415790359 -0.1374164754669145 -2.980670197409634 C -0.4355272234571259 -3.0770639929367753 -0.8850838158387327 -2.9287636542873394 -0.860637765778941 -2.5587507478695164 C -0.8548140214523425 -2.469485625681489 -0.8111701292826584 -2.257597064976758 -0.6009967809480895 -2.075032367583842" fill="#64c6c4" transform="matrix(1,0,0,1,0,0)" fill-rule="nonzero"></path></g><g clip-path="url(#a07ce8861-3882-4acb-90d6-89fb11aabe74ab4d5766-a5e7-4787-8f6e-05517c65ee31)"><path d=" M 0.11836100774609593 -3.4097753040885386 C 0.032942292036007514 -3.432739775356828 -0.05987292087165874 -3.3628719385775487 -0.08883778624553329 -3.253730867063518 C -0.11812176089757764 -3.1446695728690295 -0.07297919479648884 -3.0365257178492793 0.01280421723150782 -3.0151966816316103 C 0.17099694350420713 -2.975860764717218 0.2200030112231368 -3.1712183251367616 0.2200030112231368 -3.1712183251367616 C 0.24894508307714225 -3.2803309047509557 0.20348910607785098 -3.3871413388583536 0.11836100774609593 -3.4097753040885386" fill="#64c6c4" transform="matrix(1,0,0,1,0,0)" fill-rule="nonzero"></path></g><g clip-path="url(#a07ce8861-3882-4acb-90d6-89fb11aabe74ab4d5766-a5e7-4787-8f6e-05517c65ee31)"><path d=" M -0.36664520641219284 -3.6637350040919747 C -0.4937190796833716 -3.665302058582987 -0.5982900504636137 -3.5420973853096167 -0.6001762142327958 -3.3885944257500196 C -0.6020851715218472 -3.235045879150684 -0.5006141194438256 -3.1092997284118904 -0.3735345477926796 -3.1077269755409107 C -0.2464834680413701 -3.106154222669931 -0.14194098916096443 -3.2293133089035626 -0.13998074645220726 -3.3828618555028984 C -0.13811737620289466 -3.5364161004822012 -0.2395941266608833 -3.6621394577011257 -0.36664520641219284 -3.6637350040919747" fill="#64c6c4" transform="matrix(1,0,0,1,0,0)" fill-rule="nonzero"></path></g><g clip-path="url(#a07ce8861-3882-4acb-90d6-89fb11aabe74ab4d5766-a5e7-4787-8f6e-05517c65ee31)"><path d=" M 0.5333170369661515 -2.960292790646507 C 0.5571818522692771 -3.0530624165144347 0.5143186381551152 -3.144259289511383 0.4375500632354148 -3.164032667997974 C 0.3607643931758122 -3.1837889513446638 0.2791635920438267 -3.1246226721440067 0.2552531897009629 -3.0318587446560463 C 0.23141686629767388 -2.9390891187881185 0.2743028739317048 -2.847869452271301 0.3510714488514053 -2.8280903754047424 C 0.4278343253911385 -2.8083625839578894 0.5094294281431568 -2.8675231647785786 0.5333170369661515 -2.960292790646507" fill="#64c6c4" transform="matrix(1,0,0,1,0,0)" fill-rule="nonzero"></path></g><g clip-path="url(#a07ce8861-3882-4acb-90d6-89fb11aabe74ab4d5766-a5e7-4787-8f6e-05517c65ee31)"><path d=" M 0.7309881396524258 -2.643833259161534 C 0.7692356659930604 -2.7221233015325077 0.7476445042968944 -2.811217472321516 0.6828767175883645 -2.84283778276016 C 0.6180804389799981 -2.874463791578772 0.5345706805589612 -2.8366493421156536 0.49634594773819596 -2.7583365062248104 C 0.45814400843729985 -2.6800749557536725 0.4797123766135962 -2.590980784964665 0.5445086552219627 -2.5593319826261833 C 0.6092764419304926 -2.527711672187539 0.6927862003515297 -2.5655489151705266 0.7309881396524258 -2.643833259161534" fill="#212245" transform="matrix(1,0,0,1,0,0)" fill-rule="nonzero"></path></g><g clip-path="url(#a07ce8861-3882-4acb-90d6-89fb11aabe74ab4d5766-a5e7-4787-8f6e-05517c65ee31)"><path d=" M 0.8042180206124221 -2.5231643649736197 C 0.7496959210851288 -2.548915344045927 0.6802611611833658 -2.5163718960525774 0.649170800081682 -2.450487226870453 C 0.6180519470801613 -2.3846253512081983 0.6370560442711652 -2.310307079674444 0.6915724454184908 -2.2845561006021367 C 0.7460945449457841 -2.2588336134296654 0.8155293048475469 -2.291377061423016 0.8466481578490677 -2.3572560322251723 C 0.8777385189507516 -2.4231691933071335 0.8587629136595845 -2.4974133859013117 0.8042180206124221 -2.5231643649736197" fill="#212245" transform="matrix(1,0,0,1,0,0)" fill-rule="nonzero"></path></g><g clip-path="url(#a07ce8861-3882-4acb-90d6-89fb11aabe74ab4d5766-a5e7-4787-8f6e-05517c65ee31)"><path d=" M -0.3540688818243233 -1.8873220330804386 C -0.2920534126400076 -1.8204458457840011 -0.23618079706046025 -1.7388963300717215 -0.19488463743731077 -1.6281426170269397 C -0.014639180691093046 -1.1449826779780619 -0.820424298349582 -0.7176668626088949 -0.5750520569568933 -0.31709924280631663 C -0.38303374719819777 -0.0037111381237266983 0.13760443689572666 -0.31733857476494354 0.31876733281668246 -0.6371544520506669 C 0.5744650387101506 -1.28714016302273 0.07288223722693532 -1.5878835625578422 -0.3540688818243233 -1.8873220330804386" fill="#212245" transform="matrix(1,0,0,1,0,0)" fill-rule="nonzero"></path></g></g></g></g><defs><clipPath id="SvgjsClipPath30680"><path d=" M -0.8615943530354999 -3.6637497884855486 h 1.7231887060709998 v 3.4762497884855486 h -1.7231887060709998 Z"></path></clipPath><clipPath id="a07ce8861-3882-4acb-90d6-89fb11aabe74ab4d5766-a5e7-4787-8f6e-05517c65ee31"><path d=" M -0.861589395233483 -0.1874952888296484 L 0.8616007068833085 -0.1874952888296484 L 0.8616007068833085 -3.6637464008519096 L -0.861589395233483 -3.6637464008519096 Z"></path></clipPath></defs></svg>